<svg xmlns="http://www.w3.org/2000/svg" xmlns:xlink="http://www.w3.org/1999/xlink">
    <symbol id="horse-figure" viewBox="0 0 19 27">
        <path d="M18.0239 25.6586H17.5365C17.5365 25.6534 17.5341 25.6483 17.5331 25.6434L17.5197 25.5838C17.5112 25.5446 17.502 25.5057 17.4924 25.4671C17.4883 25.449 17.4839 25.4308 17.4794 25.4127C17.4668 25.3618 17.4534 25.3109 17.4398 25.2601L17.4357 25.2455C17.4206 25.1904 17.4049 25.1355 17.3885 25.0809L17.3721 25.0281C17.3608 24.9905 17.3488 24.9532 17.3379 24.9159C17.3314 24.8955 17.3246 24.8754 17.3181 24.8553C17.3061 24.8194 17.2938 24.7834 17.2812 24.7478C17.2747 24.729 17.2678 24.7098 17.2613 24.6914C17.2454 24.6467 17.229 24.6023 17.2121 24.5582C17.2084 24.5488 17.2053 24.5397 17.2015 24.5303C17.1817 24.4785 17.1609 24.427 17.1397 24.3754C17.1321 24.3566 17.1243 24.3382 17.1164 24.3197C17.1021 24.2873 17.0877 24.2517 17.073 24.218L17.0453 24.1554C17.031 24.123 17.0163 24.0906 17.0012 24.0582C16.992 24.0381 16.9824 24.0177 16.9729 23.9976C16.9554 23.9603 16.9387 23.9234 16.9192 23.8868C16.912 23.8728 16.9055 23.8586 16.8984 23.8443C16.8741 23.7961 16.8491 23.7471 16.8238 23.7005L16.7897 23.6399L16.7415 23.552L16.7039 23.4872C16.6882 23.46 16.6724 23.4328 16.6564 23.4056C16.6437 23.3835 16.6307 23.3615 16.6177 23.3408C16.6 23.3113 16.5836 23.2824 16.5641 23.2533L16.5149 23.1742C16.4916 23.1379 16.4684 23.1013 16.4445 23.0653C16.4294 23.0427 16.4144 23.0203 16.399 22.9979C16.3836 22.9756 16.3669 22.95 16.3505 22.9263C16.3341 22.9027 16.3163 22.879 16.3012 22.8557C16.2862 22.8324 16.2698 22.8113 16.2537 22.7909C16.2377 22.7705 16.2196 22.7432 16.2021 22.7196L16.1539 22.6548C16.1197 22.6117 16.0883 22.5686 16.0548 22.5252L16.008 22.4659C15.9882 22.4409 15.9676 22.4163 15.9475 22.3917L15.9024 22.3372C15.8815 22.3123 15.8603 22.2876 15.8391 22.2627L15.7947 22.2115L15.7284 22.1363L15.6891 22.0929C15.6074 22.0031 15.5237 21.9147 15.4379 21.8285L15.4003 21.7906L15.3217 21.7138L15.283 21.6768C15.2557 21.6506 15.2283 21.6247 15.2007 21.5991L15.1723 21.5731C15.0756 21.484 14.9761 21.3972 14.8749 21.3139L14.8472 21.2909C14.816 21.265 14.7846 21.2394 14.7529 21.2141L14.7215 21.1888C14.6873 21.1629 14.6562 21.1373 14.623 21.1117L14.6063 21.0991C14.4945 21.0135 14.38 20.9302 14.2645 20.8502L14.2484 20.8389C14.2118 20.8139 14.1753 20.7893 14.1384 20.765L14.1141 20.7491C14.0765 20.7241 14.0386 20.6998 14.0006 20.6755L13.9941 20.6717C13.8683 20.5919 13.7402 20.5156 13.6096 20.4426L13.6045 20.4393C13.5631 20.4163 13.5218 20.3939 13.4804 20.3716L13.4623 20.3619C13.2422 20.2441 13.0161 20.1361 12.7842 20.0378L12.7698 20.0317C12.7086 20.0058 12.6471 19.9808 12.5849 19.9562H13.8082C14.0075 19.9562 14.1691 19.7387 14.1691 19.4701C14.1691 19.2015 14.0075 18.9841 13.8082 18.9841H13.4438C13.4664 18.9296 13.4913 18.868 13.5183 18.7987C13.8629 18.5952 14.4692 18.1616 15.0708 17.3651L15.0756 17.359C15.1211 17.2994 15.1659 17.2377 15.2099 17.174L15.2188 17.1613C15.2625 17.0988 15.3063 17.0343 15.3493 16.9669L15.361 16.9491C15.3815 16.9167 15.402 16.8843 15.4225 16.8519C15.4225 16.8519 15.4225 16.8493 15.4249 16.8477C15.4461 16.8153 15.4669 16.7796 15.4878 16.7449L15.5011 16.7226C15.5189 16.6928 15.537 16.6623 15.5544 16.6315C15.5578 16.626 15.5613 16.6205 15.5643 16.6147C15.5845 16.5797 15.6047 16.544 15.6245 16.5081L15.6382 16.4831C15.6546 16.4533 15.6706 16.4232 15.6867 16.3927C15.6915 16.3843 15.6963 16.3755 15.7007 16.3668C15.7198 16.3302 15.739 16.2932 15.7581 16.2556L15.7715 16.2294C15.7865 16.1989 15.8019 16.1678 15.8169 16.1367L15.8333 16.1043C15.8518 16.0661 15.8699 16.0272 15.888 15.988L15.8993 15.963C15.9143 15.9306 15.929 15.8982 15.9437 15.8658L15.9612 15.8269C15.9782 15.7877 15.9953 15.7482 16.0117 15.7083C16.0148 15.7012 16.0179 15.6937 16.0206 15.6866C16.036 15.65 16.0511 15.6127 16.0661 15.5751L16.0832 15.5324C16.0972 15.4967 16.1112 15.4608 16.1249 15.4248L16.1351 15.3976C16.1512 15.3548 16.1669 15.3111 16.1826 15.268L16.199 15.2219C16.2114 15.1876 16.2233 15.1526 16.2353 15.1176C16.2397 15.1046 16.2442 15.0917 16.2483 15.0787C16.2633 15.034 16.2783 14.9883 16.293 14.9426C16.2978 14.9267 16.3029 14.9102 16.3077 14.8953L16.3419 14.7887C16.3464 14.7732 16.3511 14.7563 16.3556 14.7424C16.3696 14.6954 16.3836 14.6474 16.3969 14.5991C16.4014 14.5839 16.4055 14.5684 16.4096 14.5528C16.4198 14.5155 16.4301 14.4783 16.44 14.4404C16.4445 14.4232 16.4489 14.406 16.4537 14.3888C16.4663 14.3389 16.479 14.2887 16.4913 14.2378L16.5015 14.1954C16.5111 14.1549 16.5207 14.114 16.5299 14.0729L16.5422 14.0178C16.5538 13.965 16.5654 13.9122 16.5764 13.8584C16.5788 13.848 16.5808 13.8373 16.5829 13.826C16.5925 13.7796 16.6017 13.7327 16.6106 13.6857C16.6143 13.6666 16.6177 13.6474 16.6215 13.6283C16.6304 13.58 16.6389 13.5311 16.6475 13.4828C16.6492 13.4725 16.6512 13.4624 16.6529 13.4524C16.6625 13.3953 16.6719 13.3379 16.681 13.28C16.6841 13.2605 16.6871 13.2411 16.6899 13.2213C16.697 13.1743 16.7039 13.127 16.7107 13.0791L16.7169 13.035C16.7251 12.9754 16.7329 12.9154 16.7404 12.8545C16.7428 12.8354 16.7449 12.8163 16.7473 12.7968C16.7532 12.7484 16.7587 12.6998 16.7637 12.651C16.7657 12.6335 16.7678 12.6163 16.7695 12.5988C16.7761 12.5362 16.7823 12.473 16.788 12.4093C16.788 12.3915 16.791 12.3736 16.7924 12.3555C16.7968 12.3043 16.8013 12.2528 16.805 12.2009C16.805 12.1818 16.8081 12.1627 16.8095 12.1436C16.8143 12.0775 16.8187 12.0109 16.8228 11.944C16.8228 11.9287 16.8228 11.9115 16.8252 11.8979C16.8283 11.8422 16.8314 11.7861 16.8338 11.7298C16.8338 11.7093 16.8338 11.6889 16.8365 11.6685C16.8392 11.5989 16.842 11.5289 16.844 11.4579C16.844 11.4482 16.844 11.4381 16.844 11.4281C16.8458 11.365 16.8472 11.3013 16.8481 11.2369C16.8481 11.2158 16.8481 11.1948 16.8481 11.1737C16.8481 11.1046 16.8481 11.035 16.8481 10.965V10.9488C16.8481 10.8743 16.8481 10.7988 16.8481 10.722V10.6572C16.8481 10.5924 16.8454 10.5243 16.8437 10.4569V10.4203C16.8413 10.3425 16.8382 10.2638 16.8351 10.1847C16.8351 10.1643 16.8331 10.1436 16.8324 10.1232C16.8294 10.0566 16.826 9.98967 16.8221 9.92227C16.8221 9.90574 16.8221 9.88986 16.8194 9.87204C16.8146 9.79103 16.8094 9.70937 16.8037 9.62707L16.7996 9.56971C16.7945 9.50101 16.7893 9.43199 16.7835 9.36232C16.7835 9.34223 16.7804 9.32214 16.7787 9.30205C16.7716 9.2178 16.7637 9.13258 16.7555 9.04703C16.7555 9.03083 16.7521 9.01463 16.7507 8.9981C16.7435 8.92519 16.7357 8.85164 16.7278 8.77743C16.7254 8.75507 16.723 8.73304 16.7203 8.71068C16.7107 8.62254 16.7005 8.53408 16.6895 8.44432C16.6895 8.4333 16.6864 8.42228 16.6851 8.41191C16.6753 8.33155 16.6649 8.25076 16.654 8.16953C16.6506 8.14555 16.6475 8.12158 16.6441 8.0976C16.6313 8.00557 16.6182 7.91278 16.6048 7.81924C15.2376 -1.40748 5.54905 0.0899114 5.54905 0.0899114L5.8594 2.07239L0 7.94076L0.256004 10.2068L2.47563 11.5029C2.57457 11.2645 2.70161 11.0374 2.85433 10.826C4.28645 9.25993 7.06491 8.03052 7.86026 7.7755C8.01954 7.72463 8.11012 7.69903 8.11012 7.69903C4.3056 12.3672 4.73831 17.7151 4.90784 18.9899C4.73147 19.0223 4.5951 19.2242 4.5951 19.4704C4.5951 19.7387 4.75676 19.9565 4.95603 19.9565H6.17932C4.14483 20.7639 2.5299 22.3015 1.6871 24.2338C1.68611 24.2365 1.68497 24.2391 1.68368 24.2416C1.62148 24.385 1.5636 24.5305 1.51005 24.6781C1.51015 24.6796 1.51015 24.6811 1.51005 24.6826C1.4957 24.7228 1.48169 24.763 1.46801 24.8035C1.46289 24.8181 1.45776 24.8327 1.45297 24.8476C1.44067 24.8839 1.42927 24.9205 1.41879 24.9574C1.41264 24.9762 1.40683 24.9953 1.40102 25.0141C1.39008 25.0488 1.37949 25.0838 1.36923 25.1188L1.35078 25.1836C1.34121 25.216 1.33164 25.2507 1.32275 25.2844C1.31626 25.3083 1.3101 25.332 1.30395 25.356C1.29575 25.3884 1.2872 25.4208 1.27934 25.4532C1.27148 25.4856 1.26396 25.518 1.25644 25.5523C1.24892 25.5867 1.23935 25.6269 1.23115 25.6645H0.743405C0.649613 25.6625 0.556355 25.6783 0.469101 25.711C0.381846 25.7437 0.302356 25.7925 0.235293 25.8547C0.16823 25.9169 0.114942 25.9912 0.0785645 26.0732C0.0421866 26.1552 0.0234484 26.2432 0.0234484 26.3322C0.0234484 26.4211 0.0421866 26.5091 0.0785645 26.5911C0.114942 26.6731 0.16823 26.7474 0.235293 26.8096C0.302356 26.8718 0.381846 26.9206 0.469101 26.9533C0.556355 26.986 0.649613 27.0018 0.743405 26.9998H18.03C18.1238 27.0018 18.2171 26.986 18.3043 26.9533C18.3916 26.9206 18.4711 26.8718 18.5382 26.8096C18.6052 26.7474 18.6585 26.6731 18.6949 26.5911C18.7313 26.5091 18.75 26.4211 18.75 26.3322C18.75 26.2432 18.7313 26.1552 18.6949 26.0732C18.6585 25.9912 18.6052 25.9169 18.5382 25.8547C18.4711 25.7925 18.3916 25.7437 18.3043 25.711C18.2171 25.6783 18.1238 25.6625 18.03 25.6645L18.0239 25.6586Z" fill="#595653"/>
    </symbol>

    <symbol id="font-logo" viewBox="0 0 146 31">
        <path d="M1.33466 12V0.344114H4.33188V4.95652H5.16445L8.72782 0.344114H11.9915L7.49562 5.78908L12.158 12H8.66121L5.16445 7.05457H4.33188V12H1.33466ZM13.8231 12.2165C13.7343 12.2165 13.6066 12.2109 13.4401 12.1998C13.2847 12.1998 13.1626 12.1887 13.0738 12.1665V9.53561C13.1071 9.54671 13.1904 9.55226 13.3236 9.55226C13.5456 9.55226 13.7343 9.52451 13.8897 9.46901C14.0562 9.4024 14.195 9.26919 14.306 9.06938C14.417 8.85846 14.5114 8.55319 14.5891 8.15356C14.6779 7.75393 14.7389 7.22109 14.7722 6.55504C14.8055 5.87788 14.8222 5.02867 14.8222 4.00739V0.344114H23.6474V12H20.6335V2.79185H17.6196V4.34042C17.6196 5.72802 17.5641 6.89361 17.4531 7.83718C17.3421 8.76965 17.1756 9.52451 16.9535 10.1018C16.7426 10.679 16.4818 11.123 16.1709 11.4339C15.8601 11.7336 15.5049 11.9389 15.1053 12.05C14.7167 12.161 14.2893 12.2165 13.8231 12.2165ZM28.3175 12.2165C28.1954 12.2165 28.0733 12.2109 27.9512 12.1998C27.8402 12.1998 27.7403 12.1832 27.6515 12.1499V9.66882C27.7403 9.67992 27.8291 9.69102 27.9179 9.70213C28.0067 9.71323 28.1121 9.71878 28.2343 9.71878C28.5562 9.71878 28.8059 9.69658 28.9836 9.65217C29.1612 9.59667 29.2999 9.50786 29.3998 9.38575C29.4997 9.25254 29.583 9.07493 29.6496 8.85291L24.9706 0.344114H28.0178L31.1149 6.25531L33.546 0.344114H36.4766L32.5802 9.15263C32.3249 9.72988 32.0696 10.2128 31.8143 10.6013C31.5701 10.9898 31.287 11.3062 30.9651 11.5504C30.6542 11.7835 30.2824 11.95 29.8494 12.05C29.4276 12.161 28.917 12.2165 28.3175 12.2165ZM37.8081 12V0.344114H46.3835V2.8085H40.8053V4.54023H42.7202C44.3409 4.54023 45.5343 4.87326 46.3002 5.53931C47.0773 6.19426 47.4658 7.07678 47.4658 8.18686C47.4658 9.38575 47.0773 10.3238 46.3002 11.0009C45.5343 11.667 44.3409 12 42.7202 12H37.8081ZM40.8053 9.53561H42.3872C43.1087 9.53561 43.6194 9.41905 43.9191 9.18594C44.2188 8.94172 44.3687 8.60869 44.3687 8.18686C44.3687 7.76503 44.2188 7.43755 43.9191 7.20444C43.6194 6.96022 43.1087 6.83811 42.3872 6.83811H40.8053V9.53561ZM7.39572 30V25.3543C7.10709 25.543 6.72412 25.7151 6.24678 25.8705C5.78054 26.0148 5.2255 26.087 4.58165 26.087C3.37166 26.087 2.45584 25.7872 1.83419 25.1878C1.22365 24.5772 0.918374 23.6004 0.918374 22.2572V18.3441H3.9156V21.7576C3.9156 22.4126 4.05436 22.8844 4.33188 23.173C4.6094 23.4505 4.99793 23.5893 5.49747 23.5893C5.95261 23.5893 6.33559 23.5393 6.64641 23.4394C6.95723 23.3284 7.207 23.2118 7.39572 23.0897V18.3441H10.4096V30H7.39572ZM12.7336 30V18.3441H21.2258V20.642H15.7308V22.9232H20.7262V25.0879H15.7308V27.7021H21.2258V30H12.7336ZM26.2133 30V20.8085H22.6333V18.3441H32.7906V20.8085H29.2106V30H26.2133ZM34.2957 30V18.3441H37.2929V22.2072H38.7083C40.329 22.2072 41.5224 22.5569 42.2883 23.2562C43.0654 23.9556 43.4539 24.9047 43.4539 26.1036C43.4539 27.3025 43.0654 28.2516 42.2883 28.951C41.5224 29.6503 40.329 30 38.7083 30H34.2957ZM37.2929 27.5356H38.3753C39.0746 27.5356 39.5797 27.4024 39.8905 27.136C40.2014 26.8696 40.3568 26.5254 40.3568 26.1036C40.3568 25.6818 40.2014 25.3376 39.8905 25.0712C39.5797 24.8048 39.0746 24.6716 38.3753 24.6716H37.2929V27.5356ZM44.2865 30V18.3441H47.2837V30H44.2865ZM49.6136 30V18.3441H54.3592C55.4471 18.3441 56.3407 18.5051 57.04 18.827C57.7394 19.1378 58.2556 19.593 58.5886 20.1924C58.9327 20.7807 59.1048 21.4912 59.1048 22.3238C59.1048 23.1452 58.9327 23.8557 58.5886 24.4551C58.2556 25.0546 57.7394 25.5153 57.04 25.8372C56.3407 26.148 55.4471 26.3034 54.3592 26.3034H52.6108V30H49.6136ZM52.6108 23.839H54.0261C54.7921 23.839 55.3305 23.7114 55.6413 23.4561C55.9521 23.2007 56.1076 22.8233 56.1076 22.3238C56.1076 21.8242 55.9521 21.4468 55.6413 21.1915C55.3305 20.9362 54.7921 20.8085 54.0261 20.8085H52.6108V23.839ZM60.7686 30V18.3441H69.2608V20.642H63.7658V22.9232H68.7612V25.0879H63.7658V27.7021H69.2608V30H60.7686ZM70.4224 30L74.2189 23.9223L70.589 18.3441H73.9026L76.1838 21.8742L78.4983 18.3441H81.7453L78.132 23.889L81.9118 30H78.5649L76.1338 25.9204L73.7027 30H70.4224ZM87.6519 30V18.3441H90.6492V22.9565H91.4817L95.0451 18.3441H98.3088L93.8129 23.7891L98.4753 30H94.9785L91.4817 25.0546H90.6492V30H87.6519ZM104.979 30.2165C104.224 30.2165 103.503 30.1055 102.814 29.8834C102.126 29.6614 101.521 29.3117 100.999 28.8344C100.478 28.3571 100.067 27.741 99.7672 26.9861C99.4675 26.2202 99.3176 25.3099 99.3176 24.2553V23.9223C99.3176 22.901 99.4675 22.024 99.7672 21.2914C100.067 20.5587 100.478 19.9593 100.999 19.4931C101.521 19.0268 102.126 18.6827 102.814 18.4607C103.503 18.2387 104.224 18.1276 104.979 18.1276C105.756 18.1276 106.483 18.2387 107.16 18.4607C107.837 18.6827 108.437 19.0268 108.959 19.4931C109.48 19.9593 109.891 20.5587 110.191 21.2914C110.491 22.024 110.64 22.901 110.64 23.9223V24.2553C110.64 25.3099 110.491 26.2202 110.191 26.9861C109.891 27.741 109.48 28.3571 108.959 28.8344C108.437 29.3117 107.837 29.6614 107.16 29.8834C106.483 30.1055 105.756 30.2165 104.979 30.2165ZM104.962 27.7188C105.418 27.7188 105.839 27.6189 106.228 27.4191C106.616 27.2081 106.927 26.8585 107.16 26.37C107.405 25.8705 107.527 25.1656 107.527 24.2553V23.9223C107.527 23.0564 107.405 22.3848 107.16 21.9075C106.927 21.4301 106.616 21.0971 106.228 20.9084C105.839 20.7197 105.418 20.6253 104.962 20.6253C104.529 20.6253 104.119 20.7197 103.73 20.9084C103.342 21.0971 103.025 21.4301 102.781 21.9075C102.537 22.3848 102.415 23.0564 102.415 23.9223V24.2553C102.415 25.1656 102.537 25.8705 102.781 26.37C103.025 26.8585 103.342 27.2081 103.73 27.4191C104.119 27.6189 104.529 27.7188 104.962 27.7188ZM112.548 30V18.3441H115.545V22.7734H119.874V18.3441H122.871V30H119.874V25.2377H115.545V30H112.548ZM125.199 30V18.3441H133.691V20.642H128.196V22.9232H133.191V25.0879H128.196V27.7021H133.691V30H125.199ZM135.606 30V18.3441H138.603V25.3376L143.182 18.3441H145.929V30H142.932V23.0065L138.353 30H135.606ZM140.768 17.6947C139.99 17.6947 139.352 17.5893 138.853 17.3783C138.364 17.1563 138.003 16.8344 137.77 16.4126C137.548 15.9907 137.437 15.4634 137.437 14.8307H139.868C139.868 15.2969 139.935 15.6133 140.068 15.7798C140.212 15.9352 140.446 16.0129 140.768 16.0129C141.089 16.0129 141.317 15.9352 141.45 15.7798C141.595 15.6133 141.667 15.2969 141.667 14.8307H144.098C144.098 15.4634 143.981 15.9907 143.748 16.4126C143.526 16.8344 143.171 17.1563 142.682 17.3783C142.194 17.5893 141.556 17.6947 140.768 17.6947Z" fill="#595653"/>
    </symbol>

    <symbol id="tick-right" viewBox="0 0 10 18" fill="none">
        <path d="M1.92324 2.0769L8.84631 8.99998L1.92324 15.9231" stroke="white" stroke-width="1.63636" stroke-linecap="square"/>
    </symbol>

    <symbol id="tick-left" viewBox="0 0 10 18" fill="none">
        <path d="M8.07676 15.923L1.15369 8.9999L8.07676 2.07682" stroke="white" stroke-width="1.63636" stroke-linecap="square"/>
    </symbol>
</svg>
